<?xml version="1.0" encoding="utf-8"?>
<!-- Generator: Adobe Illustrator 22.0.1, SVG Export Plug-In . SVG Version: 6.00 Build 0)  -->
<svg version="1.1" id="_x23_Layer_1" xmlns="http://www.w3.org/2000/svg" xmlns:xlink="http://www.w3.org/1999/xlink" x="0px"
	 y="0px" viewBox="0 0 692 282" style="enable-background:new 0 0 692 282;" xml:space="preserve">
<style type="text/css">
	.st0{fill:#006853;}
</style>
<g>
	<path class="st0" d="M46.6,211.6c-0.3-2.8-2.3-6.5-7.8-6.5c-4.7,0-8.3,3.3-8.3,9.6c0,6.2,3.4,9.5,8.3,9.5c4.5,0,7-2.8,7.8-6.7h-3.9
		c-0.4,2.2-1.8,3.4-4,3.4c-3.2,0-4.4-2.9-4.4-6.2c0-5.1,2.6-6.3,4.4-6.3c3.2,0,3.7,2.1,4,3.2H46.6z"/>
	<path class="st0" d="M135,214.8c0,8.4,6.3,9.5,8.7,9.5c2.3,0,8.7-1.1,8.7-9.5c0-8.5-6.3-9.6-8.7-9.6
		C141.3,205.2,135,206.3,135,214.8L135,214.8z M138.7,214.8c0-5.1,2.9-6.3,5-6.3s5,1.2,5,6.3c0,5-2.9,6.2-5,6.2
		C141.6,221,138.7,219.7,138.7,214.8z"/>
	<polygon class="st0" points="245.4,205.7 241.6,205.7 241.6,223.7 254.4,223.7 254.4,220.4 245.4,220.4 	"/>
	<polygon class="st0" points="346.9,205.7 343.4,205.7 343.4,223.7 355.9,223.7 355.9,220.4 346.9,220.4 	"/>
	<polygon class="st0" points="458.1,205.7 444.8,205.7 444.8,223.7 458.6,223.7 458.6,220.6 448.5,220.6 448.5,215.9 457.3,215.9 
		457.3,212.7 448.5,212.7 448.5,208.9 458.1,208.9 	"/>
	<path class="st0" d="M556.4,217.1h4.1c-0.7,3.6-3.4,3.9-4.3,3.9c-2.6,0-5.4-1.2-5.4-6.2c0-4.5,2.6-6.5,5.2-6.5c2.6,0,4,2.3,4,3h3.7
		c-0.1-2.5-2.3-6.2-7.8-6.2c-6.2,0-8.8,4.7-8.8,9.6c0,6.3,3.9,9.5,8.3,9.5c3.3,0,4.7-1.7,5.6-2.8l0.3,2.2h2.6V214h-7.6v3.1H556.4z"
		/>
	<polygon class="st0" points="667.1,205.7 653.8,205.7 653.8,223.7 667.5,223.7 667.5,220.6 657.4,220.6 657.4,215.9 666.2,215.9 
		666.2,212.7 657.4,212.7 657.4,208.9 667.1,208.9 	"/>
</g>
<path class="st0" d="M51.2,120.3c-13.1-1.1-18.4-4-20.9-11.4c-0.7-1.8-1-3.8-1-6.4c0-11.8,6.9-17.3,21.7-17.3
	c5.1,0,9.9,1.1,12.8,2.8c1.6,1,2.2,2.4,3.4,10.4l0.2,1.2l4.6-1.7l1.3-15.7l-0.6-0.3c-5.7-2.5-7.9-3.3-11.8-4.1c-3-0.7-6-1.1-8.5-1.1
	c-17.5,0-32.8,14.6-32.8,31.2c0,6.3,2.3,12.2,6.3,16c3.9,3.6,8.9,5.3,18.5,6.2c12.5,1.3,17.7,3.9,20.8,10.6c1.1,2.5,1.6,4.9,1.6,8
	c0,12.9-8.3,20-23.4,20c-4.5,0-8.5-0.6-11.4-1.6c-2.6-0.9-4.2-2.3-5.3-4.4c-1.1-2.1-1.4-4.2-1.4-8.6v-1h-4.7L18,171.2l0.5,0.3
	c4.2,2.6,5.9,3.4,9.7,4.5c3.6,1.2,7.3,1.7,11.2,1.7c20.5,0,37.8-16,37.8-35c0-4.6-1-8.6-3-12C70.4,124.2,64.2,121.4,51.2,120.3z"/>
<path class="st0" d="M171,165.5c-1.9,0.4-3.1,0.5-5,0.5c-5.8,0-9.8-2.1-19.7-10l-38-31.1l33.2-33.6c2.5-2.7,3.2-3.3,5-4.9
	c1.9-1.7,2.8-2.4,5.3-4.4l2.5-2l-4.1,0.3c-1,0.1-1,0.1-5.2,0.1c-1.2,0-2.3,0-3.5-0.1c-1.2,0-2.4-0.1-3.6-0.1h-0.6l-0.3,0.5
	c-1.7,3.2-4.8,7.6-7.3,10.3l-30.6,31.4v-18.2c0-6.5,0.5-13.1,1.1-16.1c0.5-1.9,1.1-2.6,5.6-3.1l0.9-0.1v-5.1l-1.1,0.1
	c-5,0.6-8.8,0.6-11.5,0.6c-3.6,0-6.8-0.1-11.9-0.6l-1.1-0.1v5.1L82,85c4.1,0.5,5,1.2,5.5,2.4c0.3,0.8,0.8,2.6,1.1,6.1
	c0,0.5,0,1.3,0.1,2.5c0,0.9,0.1,2,0.2,3.3c0.1,2.6,0.1,4.2,0.1,5v50.5c0,1.9-0.1,3.3-0.3,4.2l-0.1,0.7c-0.2,3.1-0.4,5.1-1,7
	c-0.5,1.7-1.1,2.5-5.7,3l-0.9,0.1v5.1l1.1-0.1c4.7-0.5,7.7-0.6,12-0.6c3.3,0,6.8,0.2,11.4,0.6l1.1,0.1v-5.1l-0.9-0.1
	c-4.3-0.5-5.1-1.2-5.6-3.1c-0.6-2.6-1.1-9.5-1.1-16.1v-19.8l40.5,34.7c6.3,5.4,8.8,7,12.4,8.3c1.6,0.7,3.2,1,5,1
	c4.6,0,8.9-2.2,14.9-7.5l2.7-2.4L171,165.5z"/>
<path class="st0" d="M186.6,80.6c-2.8,0-6.4-0.1-11.5-0.6l-1.1-0.1V85l0.9,0.1c4.3,0.5,5.2,1.2,5.7,2.4c0.6,1.4,0.7,3.4,1,8.1
	c0.1,2.6,0.3,6.9,0.3,8.8v49.3c0,1.1,0,2-0.1,2.9c0,0.7-0.1,1.3-0.1,1.7c-0.3,5.9-0.5,7.5-1.1,9.1c-0.5,1.3-1.6,2-5.6,2.4l-0.9,0.1
	v5.1l1.1-0.1c4.8-0.5,8.1-0.6,11.6-0.6c4.2,0,7.5,0.2,11.6,0.6l1.1,0.1v-5.1l-0.9-0.1c-4.2-0.4-5.1-1.2-5.6-2.9
	c-0.6-2.4-1-8.2-1-15.8v-48.3c0-2.4,0.1-4.6,0.2-7.1V95c0.1-4.3,0.4-5.8,0.9-7.3c0.4-1.4,1.3-2.2,5.5-2.7l0.9-0.1v-5.1l-1.1,0.1
	C194.3,80.4,190.9,80.6,186.6,80.6z"/>
<path class="st0" d="M258.6,79.2c-2.5,0-6.3,0.1-11.2,0.4c-9.9,0.6-20.8,1-27.2,1c-4.8,0-7.3-0.1-12.7-0.6l-1.1-0.1V85l0.9,0.1
	c3.8,0.3,4.8,1.1,5.4,2.3c0.8,1.9,1.1,4,1.3,11.2c0.1,2.2,0.1,4.1,0.1,5.8v46.1c0,5.9-0.4,12.9-0.9,15.9c-0.5,2.3-1.1,4-2.8,6.8
	l-1.1,1.7l2-0.1c0.6,0,1.2-0.1,1.6-0.1c0.8-0.1,1.4-0.1,2.1-0.1c1.5-0.1,4.7-0.1,6.8-0.1c2.1,0,4.4,0,7.3,0.1l7.7,0.4
	c2,0.1,3.8,0.1,5.8,0.1c10.7,0,18.4-1.1,24.9-3.6c9.9-3.6,18.5-11.4,24.2-21.9c4.8-8.8,7.1-18.7,7.1-30.4
	C298.9,93.7,284.2,79.2,258.6,79.2z M288.3,126.4c0,18.6-7.4,32.2-20.2,37.2c-4,1.6-8,2.3-15.8,2.7c-4.3,0.2-8.8,0.4-12.3,0.4
	c-1.7,0-3.2,0-6.4-0.1c-1.3,0-2.4-0.1-3.4-0.1c-2-0.1-3.6-0.1-4.6-0.1H225c-0.3-2.1-0.4-3.2-0.5-6.6V159c-0.1-1.5-0.1-2.8-0.1-3.5
	V99.6c0-3.9,0.4-7.9,1-11.1c2.5-0.4,3.6-0.5,7.2-0.8c6.1-0.3,12.5-0.6,17.9-0.6c7.9,0,13.5,0.7,17.7,2.3c5.9,2.2,11.2,7,14.7,13.1
	l0,0C286.6,108.4,288.3,116.3,288.3,126.4z"/>
<path class="st0" d="M417.6,161.7c0-0.6-0.1-1.6-0.1-1.9c-1.5-52-1.8-64.2-1.8-66.7l0,0c-0.1-6.3,1.7-7.6,4.9-7.8
	c0.6,0,1-0.1,1.4-0.2c0.2,0,0.3-0.1,0.6-0.1l0.8-0.1v-5.1l-3.4,0.4c-2.7,0.2-5.1,0.4-6.6,0.4c-0.3,0-0.7,0-1.1-0.1
	c-0.5,0-1-0.1-1.4-0.1s-0.9-0.1-1.5-0.1c-1.2-0.1-2.7-0.1-3.5-0.4l-0.8-0.2l-41.3,81.2l-40.2-72.4c-0.4-0.7-0.7-1.3-1-1.9
	c-0.9-1.6-1.6-2.9-3.2-6.1l-0.3-0.6l-0.7,0.1c-0.6,0.1-0.8,0.1-1,0.1s-0.4,0.1-1.3,0.1c-0.6,0-1.1,0.1-1.7,0.2
	c-1.1,0.1-2.1,0.2-3.1,0.2c-1.1,0-2.2-0.1-3.3-0.3c-1.1-0.1-2.3-0.3-3.5-0.3l0,0c-0.1,0-0.1,0-0.2,0c-0.2,0-0.4-0.1-0.6-0.1h-1V85h1
	c3.5,0.1,4,0.5,6.4,4.6c0.1,0.1,0.5,1,0.9,1.6l-5.5,67.7c-0.8,9-2.1,10.3-7,10.6l-0.9,0.1v5.1l1.1-0.1c0.8-0.1,1.6-0.1,2.2-0.1
	c0.9,0,1.6-0.1,2.2-0.1c1.6-0.1,2.8-0.2,3.9-0.3c0.9-0.1,1.6-0.1,2.2-0.1c1.1,0,3.1,0.1,6.3,0.4c0.8,0,1.9,0.1,3.3,0.2l2.6,0.2v-5.2
	h-1.8c-4.6,0-5.6-0.6-5.6-7.2c0-0.7,0-1.1,0.1-1.8c0-0.4,0.1-0.9,0.1-1.5L318,102l44.2,78.5l42.5-83.6l1.7,64.3c0,0.4,0,0.9,0.1,1.4
	c0,0.5,0.1,1,0.1,1.6c0,2.9-0.3,3.5-0.8,4.2c-0.8,1-1.8,1.4-5.2,1.4h-1v5.2l1.1-0.1c1.7-0.2,2.4-0.2,3.8-0.3l1.2-0.1
	c2.9-0.3,4.2-0.3,6.9-0.3c3.5,0,6.9,0.1,11.5,0.6l1.1,0.1v-5.2h-1.6C418.8,169.7,418.1,169.2,417.6,161.7z"/>
<path class="st0" d="M484.3,76.8c-9.5,0-19,2-27.6,5.9c-18.8,8.7-28.7,24.5-28.7,45.7c0,30,18.3,49.4,46.7,49.4
	c32.5,0,56-23.6,56-56.1C530.8,93.6,513.4,76.8,484.3,76.8z M519.7,126c0,26.9-14.9,44.3-38,44.3c-26,0-42.8-17.9-42.8-45.6
	c0-7.4,1.2-14.1,3.7-19.9c3-7.2,7.4-11.9,15.2-16.1c6.6-3.6,12.4-4.9,20.8-4.9C504,83.8,519.7,99.9,519.7,126z"/>
<path class="st0" d="M611.4,165.5c-2.9-1.3-5.5-3.7-11.3-10.1L569.7,121c5.6-2.6,7.8-4.3,11.2-8.1c5.1-5.3,7.5-10.7,7.5-16.5
	c0-10.4-8.5-16.8-22.2-16.8c-2.5,0-4,0.1-11.5,0.8c-2.8,0.3-5.5,0.3-8.3,0.3c-3.2,0-6.3-0.2-10.5-0.6l-1.1-0.1v5.2h1
	c3.8,0.1,4.8,0.8,5.3,1.9c0.7,1.7,1.1,4.9,1.3,11.6l0.1,2.4c0,1.4,0,1.4,0,3.4v46.2c0,0.5,0,1.8-0.1,4.1c-0.1,1.1-0.1,2-0.1,3
	c-0.1,3-0.2,5.6-1,9.1c-0.4,1.9-1.2,2.7-5.6,3.1l-0.9,0.1v5.1l1.1-0.1c5.1-0.5,8.1-0.6,11.7-0.6c3.6,0,6.5,0.1,11.7,0.6l1.1,0.1
	v-5.1l-0.9-0.1c-3.2-0.3-4.1-0.7-4.8-1.4c-0.9-1-1.8-4.8-1.8-10c0-0.5-0.3-50.3-0.1-53.9c0,0,0.1-4,0.3-9.7c0-0.9,0.1-1.7,0.1-2.6
	c0-1.5,0.1-3,0.2-4.4c2.8-0.5,4.9-0.7,7.5-0.7c10.2,0,16.1,4.9,16.1,13.4c0,6.5-3.8,11.9-10.7,15.2c-3.1,1.5-5.1,2.1-10.4,2.8
	l-1.9,0.2l37.5,43.7c7.3,8.5,13,12.7,17.3,12.7c3.2,0,6.5-1.7,11.1-5.8l1.7-1.5l-2.2-0.3C615.2,166.9,613.6,166.4,611.4,165.5z"/>
<path class="st0" d="M675.9,155.8l-0.7,4c-0.7,3.9-1.5,5.9-2.7,6.4c-0.9,0.4-2.2,0.4-5.1,0.6l-2,0.1c-1.1,0-1.6,0.1-2.1,0.1
	c-1,0-1.5,0.1-5,0.2c-0.6,0-1.3,0-2.1,0c-1.2,0-2.7,0.1-4.6,0.1c-3.9,0.1-6.7,0.1-8.2,0.1h-4.6c-0.6-2.9-0.8-5.3-0.8-8.9v-29.4h29
	l3.8-8.1h-32.7V96.5c0-3,0.2-5.5,0.7-8.5c1.6,0,1.8,0,3.2,0l2.8-0.1c2.3-0.1,5.8-0.1,7.7-0.1c7.4,0,11,0.4,13.4,1.7
	c1.3,0.7,1.9,1.8,2.9,4.8l0.4,1.1l4.3-2.2l-0.2-0.8c-0.2-1.1-0.2-2.1-0.2-3.3c0-1.7,0.3-4.3,0.9-7.5l0.2-0.9l-0.9-0.2
	c-2.2-0.5-3.9-0.8-8-0.8c-0.9,0-1.8,0-3.1,0.1c-0.9,0-1.9,0.1-3.3,0.1c-12.6,0.5-21.3,0.8-24.4,0.8c-4.7,0-9-0.2-13.2-0.6l-1.1-0.1
	v5.1l0.9,0.1c5.6,0.7,6,0.9,6.5,9.2c0.1,1.9,0.2,2.8,0.2,3.6c0.1,1.2,0.1,1.8,0.1,5.2v49.3c0,1.9-0.2,5.7-0.3,8.4l-0.1,1.6
	c-0.1,1-0.2,1.9-0.3,2.7c-0.1,0.4-0.1,0.8-0.2,1.1c-0.5,2.8-1.3,4.4-3,7.2l-1,1.7l6.6-0.5c4.9-0.4,7.2-0.4,9.5-0.4
	c2.7,0,5.1,0.1,12.9,0.6c7.5,0.5,11.7,0.7,14.1,0.7c4.4,0,10.2-0.5,11.6-1.1c1-0.5,1.3-1.7,1.6-4.5c0.1-1.6,0.2-2.2,0.2-2.7
	c0.1-0.5,0.1-0.9,0.2-2.1c0.1-1.5,0.2-1.9,0.5-2.8l0.1-0.4L675.9,155.8z"/>
<path class="st0" d="M678.9,191.9H19.1c-0.8,0-1.5-0.7-1.5-1.5s0.7-1.5,1.5-1.5h659.8c0.8,0,1.5,0.7,1.5,1.5
	S679.7,191.9,678.9,191.9z"/>
</svg>
