<?xml version="1.0" encoding="utf-8"?>
<!-- Generator: Adobe Illustrator 22.0.1, SVG Export Plug-In . SVG Version: 6.00 Build 0)  -->
<svg version="1.1" id="Layer_1" xmlns="http://www.w3.org/2000/svg" xmlns:xlink="http://www.w3.org/1999/xlink" x="0px" y="0px"
	 viewBox="0 0 321.7 189.4" style="enable-background:new 0 0 321.7 189.4;" xml:space="preserve">
<style type="text/css">
	.st0{fill:#D44500;}
</style>
<g>
	<path class="st0" d="M43.4,79.7c-7.8,0-12-6-14.2-10.8l-3.5,1.3l2.8,13h2.9l0.9-2.3c3,2,6.4,3.4,10.7,3.4c7.5,0,16.9-4.2,16.9-15.2
		c0-16.4-25.3-13.7-25.3-24.5c0-4,2.5-7.2,8-7.2c6.3,0,10.6,5,12.7,9.6l3.5-1.3l-3-11.7h-3l-0.9,2.4c-1-1.2-4-3.5-9.3-3.5
		c-7.9,0-14.8,4.5-14.8,13.4c0,15.2,25.3,12.6,25.3,24.6C53.2,77.1,48.3,79.7,43.4,79.7z"/>
	<path class="st0" d="M90.3,57.9c1-2.1,2.4-2.8,4.3-3.2v-2.8H83.2v2.8l3.5,0.8l-8.4,19.3l-8.6-19.2l3.7-0.9v-2.8H59.7v2.8
		c3.1,0.7,3.5,1.3,4.4,3.3l11.3,25.2l-6.8,13c0.5,1.8,2.5,2.8,4.9,1.8l5-14.1L90.3,57.9z"/>
	<path class="st0" d="M107,60.7c1.6-1.9,4-4,6.3-4c1.5,0,2.7,1.1,3,2.2c1.9,0,3.9-1.6,3.9-4.2c0-2.8-2.3-4.1-4.5-4.1
		c-4.5,0-7.3,3.7-9,6.7l0.4-6.7l-2.6-0.4c-1.6,2.5-3.4,3.7-7.1,4.3v2.6l3.7,1v21.4l-3,0.7V83h12.7v-2.8l-3.7-0.9L107,60.7L107,60.7z
		"/>
	<path class="st0" d="M130.6,67.7c-5.8,1-9.1,4-9.1,9.2c0,3.4,2.8,7.5,9.1,7.5c4,0,7.4-1.5,9.1-4.1c0.1,1.9,1.6,3.9,4.9,3.9
		c3.4,0,5.5-2.8,5.7-3.3l-0.7-1.4c-0.3,0.2-1.1,0.6-2.2,0.6c-1.1,0-1.9-0.9-1.9-2.1V60.6c0-5.5-2.8-9.8-10.1-9.8
		c-6.3,0-12.9,4.4-13.1,11.2c3.8,2.1,7.9-0.2,6.9-4.8c1.2-1.3,2.6-2.5,5.4-2.5c2.9,0,4.8,2,4.8,4.7v6.7L130.6,67.7z M139.6,75
		c-1,2.9-3.7,5.3-7.2,5.3c-3.4,0-5.1-2.1-5.1-4.5c0-3.4,3.1-4.5,5-4.9l7.3-1.4V75z"/>
	<path class="st0" d="M165.4,84.3c7.9,0,12.4-4.3,13.5-9.1l-1.6-1c-2.2,2.8-5.3,4.8-9.6,4.8c-5.7,0-10-4.3-10-11
		c0-8,4.4-12.7,10-12.7c4,0,6,2,7.2,5c2.1-0.1,4.3-1.4,4.3-3.7c0-4.1-4.9-6-9.4-6c-8.7,0-18.3,6.9-18.3,18.8
		C151.4,79.2,158,84.3,165.4,84.3z"/>
	<path class="st0" d="M185.6,76.9c0,4.2,3.6,7.4,8.3,7.4c4.6,0,8.9-2.7,12.6-6.3l-0.4,5.4l2.6,0.4c2-1.6,4.6-2.7,7.1-3.3v-2.8h-3.7
		V51.8h-9.7v2.8l3.7,0.9v19c-3.8,3.4-7.8,4.3-10.1,4.3c-2.9,0-4.5-1.7-4.5-4.9V51.8h-9.7v2.8l3.7,0.9v21.4H185.6z"/>
	<path class="st0" d="M225.6,58.1c0-1.8,1.4-3.8,4.7-3.8c4.7,0,7.2,3.9,8.1,6l2.2-0.5l-1.4-8H237l-0.3,1c-1.3-1-3.9-2.1-7-2.1
		c-5.4,0-9.7,4-9.7,9c0,10.5,16.9,9.3,16.9,16.3c0,2-1.6,4.8-5.7,4.8c-4.6,0-8.3-3.4-10.1-7.2l-2.2,0.5l1.5,9.1h1.9l0.7-2.3
		c1.3,1.6,4.9,3.4,8.1,3.4c6,0,11.3-4.2,11.3-10.4C242.4,62.9,225.6,64.4,225.6,58.1z"/>
	<path class="st0" d="M259.9,84.3c7.2,0,12.1-4,13.4-9.8l-1.6-1c-2.3,3.4-5.4,5.4-10,5.4c-5.2,0-9-4.6-9.3-10.3l20.2-2.6l1.2-1.8
		c0-9.6-5.7-13.6-12.5-13.6c-7.2,0-15.1,5.6-15.1,18.7C246.2,79,252.5,84.3,259.9,84.3z M261,54.5c3.1,0,6.1,2.5,6.1,8.4l-14.6,1.9
		C252.7,59.2,255.4,54.5,261,54.5z"/>
	<path class="st0" d="M60.6,104.4l3.9,0.8V132c0,9.3-5.2,14.8-13.2,14.8c-10,0-14-5.7-14-15.2v-26.4l3.9-0.8v-3.3H26.4v3.3l3.9,0.8
		v27.3c0,12.2,7.2,19.3,19.6,19.3s19.6-7.1,19.6-19.3v-27.3l3.9-0.8v-3.3H60.6V104.4z"/>
	<path class="st0" d="M104.5,125.3c0-4.2-3.6-7.4-8.3-7.4c-4.6,0-8.9,2.7-12.6,6.3l0.4-6.3l-2.6-0.4c-1.6,2.5-3.4,3.7-7.1,4.3v2.6
		l3.7,1v21.4l-3,0.7v2.8h12.7v-2.8l-3.7-0.9v-19c3.8-3.4,7.8-4.3,10.1-4.3c2.9,0,4.5,1.7,4.5,4.9v18.6l-3,0.7v2.8h12.7v-2.8
		l-3.7-0.9L104.5,125.3L104.5,125.3z"/>
	<path class="st0" d="M121.7,117.9l-2.6-0.4c-1.6,2.5-3.4,3.7-7.1,4.3v2.6l3.7,1v21.3l-3.4,0.8v2.8H125v-2.8l-3.4-0.8L121.7,117.9
		L121.7,117.9z"/>
	<circle class="st0" cx="119" cy="108.6" r="3.7"/>
	<path class="st0" d="M160.8,119h-11.4v2.8l3.5,0.8l-8.4,19.3l-8.6-19.2l3.7-0.9V119h-13.7v2.8c3.1,0.7,3.4,1.3,4.4,3.3l11.7,26h2.7
		l11.9-26.1c1-2.1,2.4-2.8,4.3-3.2L160.8,119L160.8,119z"/>
	<path class="st0" d="M188,131.5c0-9.6-5.7-13.6-12.5-13.6c-7.2,0-15.1,5.6-15.1,18.7c0,9.6,6.3,14.9,13.7,14.9
		c7.2,0,12.1-4,13.4-9.8l-1.6-1c-2.3,3.4-5.4,5.4-10,5.4c-5.2,0-9-4.6-9.3-10.3l20.2-2.6L188,131.5z M166.8,132
		c0.2-5.6,2.8-10.3,8.4-10.3c3.1,0,6.1,2.5,6.1,8.4L166.8,132z"/>
	<path class="st0" d="M209.3,117.9c-4.5,0-7.3,3.7-9,6.7l0.4-6.7l-2.6-0.4c-1.6,2.5-3.4,3.7-7.1,4.3v2.6l3.7,1v21.4l-3,0.7v2.8h12.7
		v-2.8l-3.7-0.9v-18.7c1.6-1.9,4-4,6.3-4c1.5,0,2.7,1.1,3,2.2c1.9,0,3.9-1.6,3.9-4.2C213.8,119.2,211.5,117.9,209.3,117.9z"/>
	<path class="st0" d="M222,125.3c0-1.8,1.4-3.8,4.7-3.8c4.7,0,7.2,3.9,8.1,6l2.2-0.5l-1.4-8h-2.3l-0.3,1c-1.3-1-3.9-2.1-7-2.1
		c-5.4,0-9.7,4-9.7,9c0,10.5,16.9,9.3,16.9,16.3c0,2-1.6,4.8-5.7,4.8c-4.6,0-8.3-3.4-10.1-7.2l-2.2,0.5l1.5,9.1h1.9l0.7-2.3
		c1.3,1.6,4.9,3.4,8.1,3.4c6,0,11.3-4.2,11.3-10.4C238.8,130.1,222,131.6,222,125.3z"/>
	<circle class="st0" cx="249.2" cy="108.6" r="3.7"/>
	<path class="st0" d="M251.8,117.9l-2.6-0.4c-1.6,2.5-3.4,3.7-7.1,4.3v2.6l3.7,1v21.3l-3.4,0.8v2.8h12.7v-2.8l-3.4-0.8L251.8,117.9
		L251.8,117.9z"/>
	<path class="st0" d="M294.8,119v2.8l3.5,0.8l-8.4,19.3l-8.6-19.2l3.7-0.9V119h-17.5v-7.2l-2.6-0.4c-1.4,4-4.1,7.8-8.2,8.5v2.8h4.9
		v22.1c0,4.3,3,6.6,6.9,6.6c3.6,0,6.3-2.5,7.1-4.9l-1.6-1.2c-0.7,0.9-2.1,1.8-3.5,1.8c-1.9,0-3-1.3-3-3.6v-20.8h3.4
		c2.1,0,3.9,0.4,4.8,2.4l11.3,25.2l-7.5,14.6c0.5,1.8,2.5,2.8,4.9,1.8l5.7-15.7l11.9-26.1c1-2.1,2.4-2.8,4.3-3.2V119H294.8z"/>
</g>
</svg>
