<?xml version="1.0" encoding="utf-8"?>
<!-- Generator: Adobe Illustrator 20.1.0, SVG Export Plug-In . SVG Version: 6.00 Build 0)  -->
<svg version="1.1" id="Layer_1" xmlns="http://www.w3.org/2000/svg" xmlns:xlink="http://www.w3.org/1999/xlink" x="0px" y="0px"
	 viewBox="0 0 187.6 25.3" style="enable-background:new 0 0 187.6 25.3;" xml:space="preserve">
<style type="text/css">
	.st0{fill:#B31B1B;}
</style>
<title>Cornell Reduced Logo</title>
<desc>Created using Figma</desc>
<path class="st0" d="M10.8,17.4c-5,0-8.2-3.1-8.2-8.1c0-4.2,2.5-7.6,7.2-7.6c0.9,0,2,0.2,2.8,0.5c1.2,0.5,2.2,0.9,2.2,1.6v1.9h0.8
	c0-1.2,0.2-2.5,0.5-3.7c-1.2-0.5-3.4-1.1-5.8-1.1C7.5,0.9,5,1.6,3.1,3.2C1.1,4.8,0,7.1,0,9.9c0,5.6,4.1,9,10,9
	c1.5,0,4.1-0.5,5.5-1.4l0.6-1.3l-0.2-0.3C14.7,16.7,12.7,17.4,10.8,17.4z M22.7,6.5c-4.1,0-6.4,2.6-6.4,6.4c0,3.2,2.2,5.8,5.3,5.8
	l0,0l0,0h0.2c3.9,0,6.6-2.8,6.6-6.6C28.3,9,25.8,6.5,22.7,6.5z M22.8,17.9c-3.3,0-4.2-3.4-4.2-6.1c0-2.4,0.8-4.5,3.6-4.4
	c2.3,0,3.9,2.6,3.9,5.9C26.1,15.5,25.1,17.9,22.8,17.9z M33.6,7.5l-1.4,1.6V6.6L32,6.4c-0.9,0.5-2.5,0.9-3.9,1.1v0.7H29
	c0.5,0,0.8,0.1,0.9,0.3c0.2,0.2,0.2,0.8,0.2,1.5l0,0l0,0H30v5.8c0,0.6,0,1.1-0.2,1.4c-0.1,0.1-0.3,0.3-0.8,0.3h-1.1v0.7
	c0.9,0,1.9,0,3.1,0c1.3,0,2.3,0,3.6,0v-0.8h-1.2c-0.6,0-0.9-0.1-1.1-0.3c-0.2-0.2-0.2-0.8-0.2-1.4v-4.3c0-1.7,1.1-2.8,2.2-2.8
	c0.9,0,1.4,0.5,1.7,1.1h0.5l0.2-3c-0.2-0.1-0.6-0.3-1.1-0.3C34.9,6.4,34.2,6.7,33.6,7.5z M49.9,17.1c-0.2-0.2-0.2-0.8-0.2-1.4v-4.8
	c0-2.8-1.1-4.3-4.1-4.3c-0.9,0-1.4,0.2-2,0.6l-1.9,1.6V6.6l-0.2-0.2c-0.9,0.5-2.5,0.9-3.9,1.1v0.7h0.8c0.5,0,0.8,0.1,0.9,0.3
	c0.2,0.2,0.2,0.8,0.2,1.6v5.6c0,0.6,0,1.1-0.2,1.4c-0.1,0.1-0.3,0.3-0.8,0.3h-1.1v0.8c0.9,0,1.9,0,3.1,0c1.2,0,2.2,0,3.1,0v-0.8
	h-1.1c-0.5,0-0.6-0.1-0.8-0.3c-0.2-0.2-0.2-0.8-0.2-1.4l0.1-5.3c0-1.1,1.5-2.3,3.1-2.3s2.8,1.1,2.8,3.1v7c0.6,0,1.4,0,2,0s1.4,0,2,0
	v-0.8h-1.1C50.2,17.4,50,17.3,49.9,17.1z M57.6,6.5c-0.9,0-1.6,0.2-2.5,0.6C54.5,7.3,54,7.7,53.5,8c-1.2,0.9-1.9,2.3-1.9,4.8
	c0,3.4,2,5.8,5.8,5.8c1.7,0,3.9-1.1,4.1-1.4l0.5-0.8l-0.3-0.3c-0.9,0.6-1.9,1.2-3.1,1.2c-3.1,0-4.5-2-4.5-5h3.6c1.6,0,3,0,4.5-0.3
	c0-0.5,0-0.8,0-1.1C62.1,8.2,60.1,6.5,57.6,6.5z M57.1,11.6c-0.9,0-2,0-3.1-0.2v-0.2c0-2.5,1.4-3.9,3.3-3.7c1.9,0,2.6,1.9,2.6,4.2
	C59,11.6,58,11.6,57.1,11.6z M66.6,17.1c-0.2-0.2-0.2-0.8-0.2-1.4V0.2l-0.1-0.1C65,0.6,63.6,0.9,62.4,1v0.6h1.4
	c0.6,0,0.6,0.5,0.6,1.1h-0.1v12.9c0,0.6,0,1.1-0.2,1.4c-0.1,0.1-0.3,0.3-0.8,0.3h-1v0.9c0.9,0,1.9,0,3.1,0s2.2,0,3.1,0v-0.8h-1.1
	C66.9,17.4,66.8,17.2,66.6,17.1z M72.9,17.1c-0.2-0.2-0.2-0.8-0.2-1.4V0.2L72.5,0c-1.3,0.5-2.7,0.8-3.9,0.9v0.6H70
	c0.6,0,0.6,0.5,0.6,1.1h-0.1v12.9c0,0.6,0,1.1-0.2,1.4c-0.1,0.1-0.3,0.3-0.8,0.3h-1.1v1c0.9,0,1.9,0,3.1,0s2.2,0,3.1,0v-0.8h-1.1
	C73.2,17.4,73,17.2,72.9,17.1z M98.5,1c-1.1,0-2,0-3,0c-0.9,0-2,0-3,0v0.8h1.1c0.6,0,0.9,0,1.1,0.3S94.9,3,94.9,4v8
	c0,4-2.5,5.1-5.1,5.1c-3.3,0-5.1-0.9-5.1-4.5V4c0-0.9,0-1.6,0.2-1.9C85.1,2,85.4,1.8,86,1.8h1.2V1c-1.3,0-2.5,0-3.6,0
	c-1.2,0-2.5,0-3.7,0v0.8h1.2c0.6,0,0.9,0,1.1,0.3S82.4,3,82.4,4h0.1v8.9c0,4.5,2.5,5.8,6.7,5.8c5,0,7-2.2,7-7.5V4
	c0-0.9,0-1.6,0.2-1.9c0.2-0.1,0.5-0.3,1.1-0.3h1.1L98.5,1L98.5,1z M109.9,17.1c-0.2-0.2-0.2-0.8-0.2-1.4v-4.8c0-2.8-1.1-4.3-4.1-4.3
	c-0.9,0-1.4,0.2-2,0.6l-1.9,1.6V6.6l-0.2-0.2c-0.9,0.5-2.5,0.9-3.9,1.1v0.7h0.9c0.5,0,0.8,0.1,0.9,0.3c0.2,0.2,0.2,0.8,0.2,1.6v5.6
	c0,0.6,0,1.1-0.2,1.4c-0.1,0.1-0.3,0.3-0.8,0.3h-1.1v0.8c0.9,0,1.9,0,3.1,0s2.2,0,3.1,0v-0.8h-1.1c-0.5,0-0.6-0.1-0.8-0.3
	c-0.2-0.2-0.2-0.8-0.2-1.4v-0.1h-0.1v-5.2c0-1.1,1.5-2.3,3.1-2.3s2.8,1.1,2.8,3.1v7c0.6,0,1.4,0,2,0s1.4,0,2,0v-0.8h-1.1
	C110.2,17.4,110,17.3,109.9,17.1z M117,17.1c-0.2-0.2-0.2-0.8-0.2-1.4l0,0l0,0h-0.1V6.6l-0.2-0.2c-0.9,0.5-2.5,0.9-3.9,1.1v0.7h0.9
	c0.5,0,0.8,0.1,0.9,0.3c0.2,0.2,0.2,0.8,0.2,1.6v5.6c0,0.6,0,1.1-0.2,1.4c-0.1,0.1-0.3,0.3-0.8,0.3h-1.1v0.8c0.9,0,1.9,0,3.1,0
	s2.2,0,3.1,0v-0.8h-1.1C117.3,17.4,117.1,17.2,117,17.1z M115.6,3.8c0.8,0,1.4-0.6,1.4-1.4c0-0.8-0.6-1.4-1.4-1.4s-1.4,0.6-1.4,1.4
	S114.8,3.8,115.6,3.8z M131.1,6.7c-0.7,0-1.6,0-2.3,0s-1.5,0-2.3,0v0.6h1.1c0.5,0,0.6,0.2,0.6,0.6c0,0.5-0.2,1.1-0.5,1.9l-1.1,2.6
	c-0.5,1.1-1.1,2.3-1.6,3.4l-3-7.2c-0.2-0.5-0.2-0.8-0.2-0.9c0-0.3,0.2-0.5,0.6-0.5h1.2V6.6c-1.1,0-2,0-3,0c-1.1,0-2,0-3,0v0.6h0.8
	c0.5,0,0.6,0.5,0.8,0.8l4.4,10.1h1.2c0.5-0.8,0.6-1.7,1.1-2.6l2.8-6.6c0.3-0.8,0.8-1.7,1.4-1.7h0.8V6.7H131.1z M136.7,6.5
	c-0.9,0-1.6,0.2-2.5,0.6c-0.6,0.2-1.1,0.6-1.6,0.9c-1.2,0.9-1.9,2.3-1.9,4.8c0,3.4,2,5.8,5.8,5.8c1.7,0,3.9-1.1,4.1-1.4l0.5-0.8
	l-0.3-0.3c-0.9,0.6-1.9,1.2-3.1,1.2c-3.1,0-4.5-2-4.5-5h3.6c1.6,0,3,0,4.5-0.3c0-0.5,0-0.8,0-1.1C141.1,8.2,139.1,6.5,136.7,6.5z
	 M136,11.6c-0.9,0-2,0-3.1-0.2v-0.2c0-2.5,1.6-3.9,3.3-3.7c1.9,0,2.6,1.9,2.6,4.2C137.9,11.6,136.9,11.6,136,11.6z M147.4,7.5
	L146,9.1V6.6l-0.2-0.2c-0.9,0.5-2.5,0.9-3.9,1.1v0.7h0.9c0.5,0,0.8,0.1,0.9,0.3c0.2,0.2,0.2,0.8,0.2,1.5h-0.1v5.8
	c0,0.6,0,1.1-0.2,1.4c-0.1,0.1-0.3,0.3-0.8,0.3h-1.1v0.7c0.9,0,1.9,0,3.1,0s2.3,0,3.6,0v-0.8h-1.1c-0.6,0-0.9-0.1-1.1-0.3
	c-0.2-0.2-0.2-0.8-0.2-1.4v-4.3c0-1.7,1.1-2.8,2.2-2.8c0.9,0,1.4,0.5,1.7,1.1h0.5l0.2-3c-0.2-0.1-0.6-0.3-1.1-0.3
	C148.8,6.4,148,6.7,147.4,7.5z M155.9,11.5c-1.9-0.3-2.6-0.9-2.6-2c0-0.8,0.4-2,2.5-2c1.6,0,3,0.8,3,2v0.6h0.6
	c0-0.9,0.2-1.9,0.2-2.8c-1.1-0.3-2-0.6-3.3-0.6c-2.4,0-4.7,0.9-4.7,3.6c0,1.4,0.9,2.2,2.2,2.6c1.2,0.3,2.6,0.6,3.7,0.9
	c0.8,0.3,1.2,0.9,1.2,1.7c0,1.4-1.4,2.3-3,2.3c-1.5,0-3.3-0.6-3.3-2.2v-1.1l0,0h-0.1v0.2h-0.8c0,1.1,0,2.3-0.3,3.4
	c1.1,0.5,2.2,0.6,3.4,0.6c2.6,0,5.5-1.4,5.5-4.2C160.3,12.7,158.9,12,155.9,11.5z M164.4,3.8c0.8,0,1.4-0.6,1.4-1.4
	c0-0.8-0.8-1.4-1.4-1.4c-0.8,0-1.4,0.6-1.4,1.4C163,3.2,163.6,3.8,164.4,3.8z M165.6,17.1c-0.2-0.2-0.2-0.8-0.2-1.4l0,0h-0.1V6.6
	l-0.2-0.2c-0.9,0.5-2.5,0.9-3.9,1.1v0.7h0.9c0.5,0,0.8,0.1,0.9,0.3c0.2,0.2,0.2,0.8,0.2,1.6v5.6c0,0.6,0,1.1-0.2,1.4
	c-0.1,0.1-0.3,0.3-0.8,0.3h-0.9v0.8c0.9,0,1.9,0,3.1,0s2.2,0,3.1,0v-0.8h-1.1C165.9,17.4,165.8,17.2,165.6,17.1z M174.3,8.8l0.2-1.4
	l-3.4,0.2V6.7c0-1.1,0.1-2.5,0.3-3.6l-0.3-0.3c-0.4,0.3-1.2,0.6-2.2,0.9c0.2,0.8,0.2,1.4,0.2,2v1.7l-1.9,0.9v0.5h1.8V16
	c0,2,1.3,2.6,2.5,2.6c0.5,0,1.4,0,1.6-0.3l1.2-1.2l-0.3-0.5c-0.3,0.2-0.8,0.5-1.4,0.5c-1.1,0-1.4-0.6-1.4-1.7V8.8
	C171.2,8.8,174.3,8.8,174.3,8.8z M185.4,6.9c-0.7,0-1.5,0-2.3,0v0.6h0.6c0.8,0,1.1,0.2,1.1,0.6c0,0.2,0,0.3-0.2,0.6l-2.7,7.2
	L179.1,9c-0.2-0.3-0.2-0.6-0.2-0.9c0-0.5,0.3-0.6,0.8-0.6h0.9V6.9c-1.1,0-2,0-3,0c-1.1,0-2,0-3,0v0.6h0.5c0.5,0,0.8,0.3,1.2,1.2
	l4.1,10.1l-0.6,1.6c-0.5,1.1-1.2,3.1-2.6,3.3c-0.3,0-0.9-0.3-1.2-0.6h-0.3l-0.6,1.9c0.3,0.1,0.8,0.3,1.2,0.3c2,0,3-1.2,3.7-3.1
	l5-11.7c0.9-2.2,1.4-3,2-3h0.6V6.9C187,6.9,186.2,6.9,185.4,6.9z"/>
</svg>
