<?xml version="1.0" encoding="utf-8"?>
<!-- Generator: Adobe Illustrator 22.0.1, SVG Export Plug-In . SVG Version: 6.00 Build 0)  -->
<svg version="1.1" id="Artwork" xmlns="http://www.w3.org/2000/svg" xmlns:xlink="http://www.w3.org/1999/xlink" x="0px" y="0px"
	 viewBox="0 0 349.3 112.4" style="enable-background:new 0 0 349.3 112.4;" xml:space="preserve">
<style type="text/css">
	.st0{fill:#96AA38;}
	.st1{fill:#3B3B3B;}
	.st2{fill:#00AEEF;}
	.st3{fill:none;}
</style>
<g>
	<path class="st0" d="M38.4,69.7V52.6H21v17.2h-3.7V32.2H21v17h17.4v-17h3.7v37.5H38.4z"/>
	<path class="st0" d="M49.6,69.7V32.2h3.7v37.5H49.6z"/>
	<path class="st0" d="M74.6,70.5c-9.1,0-15.2-7.6-15.2-19.4c0-11.9,6.4-19.6,15.2-19.6c3.9,0,7.7,1.4,10,3.1L83.5,38
		c-2.3-1.8-5.5-3.1-8.8-3.1c-6.7,0-11.6,5.9-11.6,16.1c0,9.9,4.7,16.2,11.8,16.2c2.7,0,5.1-0.8,7-2V54.5h-9v-3.4h12.5v15.7
		C82.3,69.2,78.2,70.5,74.6,70.5z"/>
	<path class="st0" d="M113.2,69.7V52.6H95.8v17.2h-3.7V32.2h3.7v17h17.4v-17h3.7v37.5H113.2z"/>
	<path class="st0" d="M124.4,69.7V32.2h19.1v3.5h-15.4v13.5H141v3.4h-12.8v13.6h15.4v3.5C143.6,69.7,124.4,69.7,124.4,69.7z"/>
	<path class="st0" d="M166.3,69.7l-8-15.4l-6.2,0.4v15h-3.7V32.2h9c7.9,0,11.6,4.3,11.6,10.8c0,4.9-2.9,8.9-7.3,10.6l8.6,16.1H166.3
		z M156.9,35.6h-4.7v15.7l5.5-0.2c4.1-0.2,7.7-3,7.7-7.9S162.3,35.6,156.9,35.6z"/>
	<path class="st0" d="M182,69.7V32.2h19.1v3.5h-15.4v13.5h12.8v3.4h-12.8v13.6h15.4v3.5C201.1,69.7,182,69.7,182,69.7z"/>
	<path class="st0" d="M214.9,69.7h-8.8V32.2h9c10.4,0,16.8,7.4,16.8,18.5C231.9,62.5,225.7,69.7,214.9,69.7z M214.6,35.7h-4.8v30.5
		h4.9c8,0,13.4-5,13.4-15.2C228.1,41.5,223.2,35.7,214.6,35.7z"/>
	<path class="st1" d="M244.5,69.7V32.2h7v31.5h12.7v6H244.5z"/>
	<path class="st1" d="M268.5,69.7V32.2h6.9v37.5H268.5z"/>
	<path class="st1" d="M298.7,69.7H290l-10.9-37.5h7.4l7.9,29l7.9-29h7.4L298.7,69.7z"/>
	<path class="st1" d="M313.3,69.7V32.2H335v6.1h-14.8V48h12v5.9h-12v9.8H335v6.1h-21.7V69.7z"/>
	<g>
		<g>
			<path class="st1" d="M188.6,88.1c0,0.8-0.3,1.4-0.8,1.8s-1.2,0.6-2.1,0.6h-1V93H184v-7.2h1.8c0.5,0,0.9,0.1,1.3,0.2
				c0.4,0.1,0.6,0.3,0.9,0.5c0.2,0.2,0.4,0.4,0.5,0.7C188.5,87.4,188.6,87.7,188.6,88.1z M187.8,88.1c0-0.5-0.2-0.9-0.5-1.2
				c-0.4-0.3-0.9-0.4-1.6-0.4h-1.1v3.3h1c0.7,0,1.2-0.2,1.6-0.4C187.7,89.1,187.8,88.7,187.8,88.1z"/>
			<path class="st1" d="M190.6,93h-0.7v-5.3l0.7-0.2v1.1c0.2-0.3,0.4-0.6,0.7-0.8c0.3-0.2,0.6-0.3,0.9-0.3c0.2,0,0.3,0,0.5,0.1
				c0.2,0,0.3,0.1,0.4,0.2l-0.2,0.7c-0.1-0.1-0.2-0.1-0.4-0.2c-0.1,0-0.3-0.1-0.4-0.1c-0.3,0-0.5,0.1-0.8,0.3
				c-0.3,0.2-0.5,0.6-0.7,1V93z"/>
			<path class="st1" d="M198.7,90.4c0,0.4-0.1,0.8-0.2,1.2c-0.1,0.3-0.3,0.6-0.6,0.9c-0.2,0.2-0.5,0.4-0.8,0.6
				c-0.3,0.1-0.7,0.2-1,0.2c-0.4,0-0.7-0.1-1-0.2s-0.6-0.3-0.8-0.6c-0.2-0.2-0.4-0.5-0.5-0.9c-0.1-0.3-0.2-0.7-0.2-1.2
				s0.1-0.8,0.2-1.2c0.1-0.3,0.3-0.6,0.5-0.9c0.2-0.2,0.5-0.4,0.8-0.6c0.3-0.1,0.7-0.2,1-0.2c0.4,0,0.7,0.1,1,0.2s0.6,0.3,0.8,0.6
				c0.2,0.2,0.4,0.5,0.5,0.9C198.6,89.6,198.7,89.9,198.7,90.4z M198,90.4c0-0.3,0-0.6-0.1-0.9s-0.2-0.5-0.4-0.7s-0.4-0.3-0.6-0.4
				c-0.2-0.1-0.5-0.2-0.8-0.2s-0.5,0.1-0.8,0.2c-0.2,0.1-0.4,0.3-0.6,0.4s-0.3,0.4-0.4,0.7c-0.1,0.3-0.1,0.5-0.1,0.9
				c0,0.3,0,0.6,0.1,0.9s0.2,0.5,0.4,0.7s0.4,0.3,0.6,0.4c0.2,0.1,0.5,0.2,0.8,0.2s0.5-0.1,0.8-0.2c0.2-0.1,0.4-0.3,0.6-0.4
				c0.2-0.2,0.3-0.4,0.4-0.7C198,91,198,90.7,198,90.4z"/>
			<path class="st1" d="M203.6,85.2l0.7-0.2v8h-0.7v-0.5c-0.2,0.2-0.4,0.3-0.7,0.4s-0.6,0.2-0.9,0.2c-0.4,0-0.7-0.1-1-0.2
				s-0.5-0.3-0.8-0.6s-0.4-0.5-0.5-0.9s-0.2-0.7-0.2-1.1s0.1-0.8,0.2-1.1c0.1-0.3,0.3-0.6,0.5-0.9s0.5-0.4,0.8-0.6
				c0.3-0.1,0.7-0.2,1.1-0.2c0.2,0,0.5,0,0.7,0.1s0.4,0.1,0.6,0.2v-2.6H203.6z M203.6,88.7c-0.2-0.1-0.4-0.2-0.6-0.3
				s-0.5-0.1-0.7-0.1c-0.3,0-0.5,0.1-0.8,0.2c-0.2,0.1-0.4,0.3-0.6,0.4c-0.2,0.2-0.3,0.4-0.4,0.7c-0.1,0.3-0.1,0.6-0.1,0.9
				s0,0.6,0.1,0.8c0.1,0.3,0.2,0.5,0.4,0.7s0.3,0.3,0.6,0.4c0.2,0.1,0.5,0.2,0.7,0.2c0.3,0,0.5-0.1,0.8-0.2c0.2-0.1,0.5-0.3,0.6-0.4
				V88.7z"/>
			<path class="st1" d="M206.7,87.7v3.4c0,0.5,0.1,0.8,0.3,1s0.5,0.3,0.9,0.3c0.3,0,0.6-0.1,0.9-0.2c0.3-0.1,0.5-0.3,0.7-0.5v-4h0.7
				V93l-0.7,0.2v-0.9c-0.3,0.3-0.6,0.5-0.9,0.6s-0.6,0.2-0.9,0.2c-0.5,0-0.9-0.2-1.2-0.5s-0.4-0.8-0.4-1.3v-3.6
				C206.1,87.7,206.7,87.7,206.7,87.7z"/>
			<path class="st1" d="M215,93.1c-0.3,0.1-0.6,0.1-0.9,0.1c-0.4,0-0.8-0.1-1.1-0.2s-0.6-0.3-0.8-0.6c-0.2-0.2-0.4-0.5-0.5-0.9
				c-0.1-0.3-0.2-0.7-0.2-1.1s0.1-0.8,0.2-1.1c0.1-0.3,0.3-0.6,0.5-0.9c0.2-0.2,0.5-0.4,0.8-0.6c0.3-0.1,0.7-0.2,1-0.2
				s0.6,0,0.9,0.1s0.5,0.2,0.8,0.3l-0.2,0.6c-0.2-0.1-0.4-0.2-0.7-0.3c-0.3-0.1-0.5-0.1-0.8-0.1s-0.5,0.1-0.8,0.2
				c-0.2,0.1-0.4,0.3-0.6,0.4s-0.3,0.4-0.4,0.7c-0.1,0.3-0.1,0.5-0.1,0.9c0,0.3,0,0.6,0.1,0.9s0.2,0.5,0.4,0.7s0.4,0.3,0.6,0.4
				c0.2,0.1,0.5,0.2,0.8,0.2s0.5,0,0.8-0.1s0.5-0.2,0.7-0.3l0.2,0.7C215.5,92.9,215.2,93,215,93.1z"/>
			<path class="st1" d="M217.4,90.5c0,0.3,0.1,0.6,0.1,0.8c0.1,0.3,0.2,0.5,0.4,0.7s0.4,0.3,0.6,0.4c0.2,0.1,0.5,0.2,0.8,0.2
				s0.6,0,0.8-0.1c0.3-0.1,0.5-0.2,0.7-0.3l0.1,0.7c-0.2,0.1-0.5,0.2-0.8,0.3c-0.3,0.1-0.6,0.1-0.9,0.1c-0.4,0-0.7-0.1-1-0.2
				s-0.6-0.3-0.8-0.6c-0.2-0.2-0.4-0.5-0.5-0.9s-0.2-0.7-0.2-1.1s0.1-0.8,0.2-1.1c0.1-0.3,0.3-0.6,0.5-0.9s0.5-0.5,0.8-0.6
				s0.6-0.2,1-0.2c0.6,0,1.1,0.2,1.4,0.5s0.5,0.8,0.5,1.4c0,0.1,0,0.3,0,0.4c0,0.2,0,0.3-0.1,0.4L217.4,90.5L217.4,90.5z
				 M220.4,89.8L220.4,89.8v-0.2c0-0.4-0.1-0.7-0.3-1c-0.2-0.2-0.5-0.4-1-0.4c-0.2,0-0.5,0-0.6,0.1s-0.4,0.2-0.5,0.3
				c-0.1,0.1-0.3,0.3-0.3,0.5c-0.1,0.2-0.1,0.4-0.2,0.6L220.4,89.8z"/>
			<path class="st1" d="M226,85.2l0.7-0.2v8H226v-0.5c-0.2,0.2-0.4,0.3-0.7,0.4s-0.6,0.2-0.9,0.2c-0.4,0-0.7-0.1-1-0.2
				s-0.5-0.3-0.8-0.6s-0.4-0.5-0.5-0.9s-0.2-0.7-0.2-1.1s0.1-0.8,0.2-1.1c0.1-0.3,0.3-0.6,0.5-0.9s0.5-0.4,0.8-0.6
				c0.3-0.1,0.7-0.2,1.1-0.2c0.2,0,0.5,0,0.7,0.1s0.4,0.1,0.6,0.2v-2.6H226z M226,88.7c-0.2-0.1-0.4-0.2-0.6-0.3s-0.5-0.1-0.7-0.1
				c-0.3,0-0.5,0.1-0.8,0.2c-0.2,0.1-0.4,0.3-0.6,0.4c-0.2,0.2-0.3,0.4-0.4,0.7c-0.1,0.3-0.1,0.6-0.1,0.9s0,0.6,0.1,0.8
				c0.1,0.3,0.2,0.5,0.4,0.7s0.3,0.3,0.6,0.4c0.2,0.1,0.5,0.2,0.7,0.2c0.3,0,0.5-0.1,0.8-0.2c0.2-0.1,0.5-0.3,0.6-0.4V88.7z"/>
			<path class="st1" d="M234.6,90.3c0,0.4-0.1,0.8-0.2,1.2c-0.1,0.4-0.3,0.7-0.5,0.9s-0.5,0.5-0.8,0.6s-0.7,0.2-1,0.2
				c-0.2,0-0.4,0-0.7-0.1c-0.2-0.1-0.4-0.1-0.6-0.2l-0.7,0.3v-8l0.7-0.2v3.2c0.2-0.2,0.4-0.3,0.7-0.5c0.3-0.1,0.6-0.2,0.9-0.2
				s0.7,0.1,0.9,0.2c0.3,0.1,0.5,0.3,0.7,0.6s0.4,0.5,0.5,0.9C234.6,89.6,234.6,89.9,234.6,90.3z M233.9,90.3c0-0.3,0-0.6-0.1-0.8
				c-0.1-0.3-0.2-0.5-0.3-0.7s-0.3-0.3-0.5-0.4s-0.4-0.2-0.7-0.2s-0.6,0.1-0.8,0.2s-0.5,0.3-0.7,0.4V92c0.2,0.1,0.4,0.2,0.6,0.3
				c0.2,0.1,0.5,0.1,0.7,0.1c0.3,0,0.5-0.1,0.8-0.2c0.2-0.1,0.4-0.3,0.6-0.5s0.3-0.4,0.4-0.7C233.9,90.9,233.9,90.7,233.9,90.3z"/>
			<path class="st1" d="M237.8,93l-0.4,1.1c-0.1,0.3-0.2,0.6-0.4,0.8c-0.1,0.2-0.3,0.4-0.4,0.5s-0.3,0.2-0.4,0.3
				c-0.2,0.1-0.3,0.1-0.5,0.1s-0.4,0-0.5-0.1c-0.2,0-0.3-0.1-0.5-0.2l0.2-0.7c0.1,0.1,0.3,0.1,0.4,0.2c0.1,0,0.3,0.1,0.4,0.1
				s0.2,0,0.3-0.1c0.1,0,0.2-0.1,0.3-0.2s0.2-0.2,0.3-0.4c0.1-0.2,0.2-0.4,0.3-0.6l0.4-0.9l-2.1-5.2h0.8l1.7,4.4l1.6-4.4h0.8
				L237.8,93z"/>
		</g>
		<g>
			<path class="st2" d="M263.4,96.1h-5.7v-1.7h1.8v-7.7c0-0.9-0.4-1.3-1.4-1.3c-1.7,0-2.6,0.4-3.8,1.2v7.7h1.8V96h-5.6v-1.7h1.7
				v-7.7c0-0.9-0.4-1.3-1.4-1.3c-1.7,0-2.6,0.4-3.8,1.2v7.7h1.8v1.7H243v-1.7h1.9v-9H243v-1.7h4v1.7c1.1-1.1,2-1.8,4-1.8
				c1.8,0,2.8,0.6,3.2,1.9c1.1-1.1,2.2-1.9,4.1-1.9c2.3,0,3.3,1,3.3,3.1v7.7h1.8V96.1z"/>
			<path class="st1" d="M274.2,83.3c0-0.9-0.3-1.2-1.2-1.2h-4.2c-0.9,0-1.3,0.3-1.3,1.2V85c0,1,0.4,1.3,1.4,1.5l4.4,1
				c1.9,0.4,3.3,1,3.3,3.3V93c0,2.2-1,3.2-3.2,3.2h-4.9c-2.2,0-3.2-1-3.2-3.2v-1.8h2.2V93c0,0.9,0.3,1.2,1.2,1.2h4.5
				c0.9,0,1.3-0.3,1.3-1.2v-2c0-1-0.4-1.3-1.4-1.5l-4.4-1c-1.9-0.4-3.3-1-3.3-3.3v-1.9c0-2.2,1-3.2,3.2-3.2h4.6c2.2,0,3.2,1,3.2,3.2
				v1.6h-2.2V83.3z"/>
			<path class="st1" d="M282.5,93.1c0,0.9,0.4,1.2,1.2,1.2h1.7v1.8h-2c-2.1,0-3.1-1-3.1-3.1v-7.5h-1.8v-1.8h1.9v-3h2.1v3h3v1.8h-3
				L282.5,93.1L282.5,93.1z"/>
			<path class="st1" d="M294.5,83.7c2.1,0,3.1,1,3.1,3.1V93c0,2.1-1,3.1-3.1,3.1h-3.7c-2.1,0-3.1-1-3.1-3.1v-6.2
				c0-2.1,1-3.1,3.1-3.1C290.8,83.7,294.5,83.7,294.5,83.7z M295.5,86.8c0-0.9-0.4-1.2-1.2-1.2h-3.2c-0.9,0-1.2,0.4-1.2,1.2V93
				c0,0.9,0.3,1.2,1.2,1.2h3.2c0.9,0,1.2-0.4,1.2-1.2V86.8z"/>
			<path class="st1" d="M313.1,96.1h-5.7v-1.7h1.8v-7.7c0-0.9-0.4-1.3-1.6-1.3c-1.8,0-2.8,0.4-4,1.2v7.7h1.8V96h-5.8v-1.7h1.9v-9
				h-1.9v-1.7h4v1.7c1.1-1.1,2-1.8,4.2-1.8c2.5,0,3.5,1,3.5,3.1v7.7h1.8L313.1,96.1L313.1,96.1z"/>
			<path class="st1" d="M317,93.1c0,0.9,0.4,1.2,1.2,1.2h3.1c0.9,0,1.2-0.4,1.2-1.2v-0.9h2.1V93c0,2.1-1,3.1-3.1,3.1H318
				c-2.1,0-3.1-1-3.1-3.1v-6.2c0-2.1,1-3.1,3.1-3.1h3.6c2.1,0,3.1,1,3.1,3.1v3.6H317V93.1z M318.3,85.5c-0.9,0-1.2,0.4-1.2,1.2v2.1
				h5.5v-2.1c0-0.9-0.3-1.2-1.2-1.2H318.3z"/>
			<path class="st1" d="M335,85.7h-0.8c-1.5,0-2.5,0.5-3.6,1.2v7.5h2.4v1.7h-6.4v-1.7h1.9v-9h-1.9v-1.7h4v1.8c1-1,2-1.8,3.8-1.8h0.6
				V85.7z"/>
		</g>
	</g>
</g>
<rect id="_x3C_Slice_x3E_" x="3.1" y="12.8" class="st3" width="346" height="102"/>
</svg>
